<?xml version="1.0" standalone="no"?><!DOCTYPE svg PUBLIC "-//W3C//DTD SVG 1.1//EN" "http://www.w3.org/Graphics/SVG/1.1/DTD/svg11.dtd"><svg t="1579570266885" class="icon" viewBox="0 0 1024 1024" version="1.1" xmlns="http://www.w3.org/2000/svg" p-id="8852" xmlns:xlink="http://www.w3.org/1999/xlink" width="128" height="128"><defs><style type="text/css"></style></defs><path d="M674.67264 247.98208c-11.7248 36.1216-36.18816 49.664-73.71264 40.2944l-31.99488-9.1904c-25.46176-7.1936-40.20736-33.9456-32.82944-59.3664l3.85024-13.2096c7.20384-25.41568 34.00704-40.13568 59.46368-32.77824l32 9.19552c37.19168 10.7008 51.59936 32.44032 43.22304 65.05472m-45.09184 215.12192c-12.89216 40.1408-40.704 54.17984-83.59424 41.80992l-38.8608-11.19744c-25.46688-7.1936-40.20224-33.9456-32.83456-59.37152l7.87456-27.42272c7.20384-25.4208 34.00704-40.1408 59.47392-32.77312l40.704 11.70432c38.86592 12.70272 54.77888 38.6304 47.23712 77.25056m90.9312-347.5456l-162.82624-49.5104-14.7456-4.17792c-28.47232-8.192-58.12224 8.192-66.3296 36.61824l-113.92 394.3168c-8.21248 28.42624 8.20736 58.02496 36.68992 66.21696l157.63968 45.32224c105.86624 30.43328 172.8768-3.1744 201.1904-101.1712 7.87456-50.16064-4.19328-90.46016-36.18816-121.07264-9.88672-9.35424-5.8624-25.74336 7.20896-29.93152 39.36768-12.544 65.664-41.46688 78.72512-86.784 14.7456-68.22912-14.39744-118.0672-87.43936-149.83168" fill="#f0a31f" p-id="8853"></path><path d="M313.15968 709.36064c-7.54176 11.03872-19.93216 17.72544-33.34144 17.72544h-49.92c-13.23008 0-25.46176-6.51776-33.00352-17.38752-7.53664-10.86976-9.0368-24.7552-4.352-36.95616l22.94784-59.19744a40.9856 40.9856 0 0 1 38.528-26.4192 41.17504 41.17504 0 0 1 38.20544 25.57952c8.54016 20.89984 18.08896 43.648 24.45312 59.02848 5.1968 12.38016 3.6864 26.4192-3.51744 37.632m202.30656 125.91616L349.45536 460.53888c-15.4112-34.7904-48.57856-56.36608-86.60992-56.36608-38.70208 0-72.02816 22.08256-87.10656 57.52832L15.75424 836.1216a68.12672 68.12672 0 0 0 5.8624 64.54784c12.72832 19.23072 34.00704 30.7712 57.12384 30.7712h23.61856c25.2928 0 48.58368-13.88544 60.47744-36.29568l5.52448-10.368a21.43232 21.43232 0 0 1 18.93888-11.3664h155.9552c8.04864 0 15.24224 4.34688 18.92864 11.3664l5.5296 10.368a68.39296 68.39296 0 0 0 60.47232 36.29568h24.79616c23.28576 0 44.72832-11.54048 57.45664-31.104 12.40576-19.56352 14.4128-43.81184 5.02784-65.05472M850.34496 796.3136c-46.40256 29.09696-107.88352 14.3872-136.02304-32.94208-26.8032-44.98432-12.9024-103.67488 31.15008-131.9424a97.67936 97.67936 0 0 1 47.74912-15.38048 57.87648 57.87648 0 0 0 28.47744-9.19552c50.25792-31.4368 30.31552-108.86656-28.9792-111.872-44.56448-2.34496-90.29632 8.36096-131.1744 33.27488-108.04736 65.8944-142.3872 210.2016-75.38176 317.55776 67.34336 107.69408 209.39776 140.4672 317.11744 73.24672a229.2736 229.2736 0 0 0 107.55072-208.18944c-2.51392-42.31168-49.75616-66.2272-85.6064-43.82208l-2.67776 1.67936c-16.256 10.19904-25.96352 27.91936-26.29632 46.98624-0.68096 31.60576-16.76288 62.54592-45.90592 80.60416z" fill="#f0a31f" p-id="8854"></path></svg>